HIERARCHY
ROOT Hip
{
  OFFSET 0.0 0.0 0.0
  CHANNELS 6 Xposition Yposition Zposition Xrotation Yrotation Zrotation
  JOINT LowerSpine
  {
    OFFSET 0.0 0.061367 -0.03653
    CHANNELS 3 Xrotation Yrotation Zrotation
    JOINT MiddleSpine
    {
      OFFSET 0.0 0.056002 0.002633
      CHANNELS 3 Xrotation Yrotation Zrotation
      JOINT Chest
      {
        OFFSET 0.0 0.069296 -0.013882
        CHANNELS 3 Xrotation Yrotation Zrotation
        JOINT Neck
        {
          OFFSET 0.0 0.156156 -0.002923
          CHANNELS 3 Xrotation Yrotation Zrotation
          JOINT Head
          {
            OFFSET 0.0 0.088183 0.023986
            CHANNELS 3 Xrotation Yrotation Zrotation
            End Site
            {
              OFFSET 1e-06 0.123215 0.003678
            }
          }
        }
        JOINT LClavicle
        {
          OFFSET 0.014189 0.150698 0.046467
          CHANNELS 3 Xrotation Yrotation Zrotation
          JOINT LShoulder
          {
            OFFSET 0.082893 0.021616 -0.034976
            CHANNELS 3 Xrotation Yrotation Zrotation
            JOINT LForearm
            {
              OFFSET 0.195645 -0.000695 -0.001695
              CHANNELS 3 Xrotation Yrotation Zrotation
              JOINT LHand
              {
                OFFSET 0.163209 0.000474 -0.000977
                CHANNELS 3 Xrotation Yrotation Zrotation
                End Site
                {
                  OFFSET 0.0 0.006864 0.0
                }
              }
            }
          }
        }
        JOINT RClavicle
        {
          OFFSET -0.014189 0.150698 0.046467
          CHANNELS 3 Xrotation Yrotation Zrotation
          JOINT RShoulder
          {
            OFFSET -0.082908 0.021619 -0.034982
            CHANNELS 3 Xrotation Yrotation Zrotation
            JOINT RForearm
            {
              OFFSET -0.195645 -0.000695 -0.001695
              CHANNELS 3 Xrotation Yrotation Zrotation
              JOINT RHand
              {
                OFFSET -0.163209 0.000474 -0.000977
                CHANNELS 3 Xrotation Yrotation Zrotation
                End Site
                {
                  OFFSET 0.0 0.006864 0.0
                }
              }
            }
          }
        }
      }
    }
  }
  JOINT RThigh
  {
    OFFSET -0.072558 0.02774 -0.005953
    CHANNELS 3 Xrotation Yrotation Zrotation
    JOINT RShin
    {
      OFFSET -0.005253 -0.285537 0.0
      CHANNELS 3 Xrotation Yrotation Zrotation
      JOINT RFoot
      {
        OFFSET 0.0 -0.28038 0.0
        CHANNELS 3 Xrotation Yrotation Zrotation
        JOINT RToe
        {
          OFFSET 0.0 -0.030816 0.064441
          CHANNELS 3 Xrotation Yrotation Zrotation
          End Site
          {
            OFFSET 0.0 0.0 0.043231
          }
        }
      }
    }
  }
  JOINT LThigh
  {
    OFFSET 0.072557 0.027741 -0.005953
    CHANNELS 3 Xrotation Yrotation Zrotation
    JOINT LShin
    {
      OFFSET 0.005253 -0.285539 0.0
      CHANNELS 3 Xrotation Yrotation Zrotation
      JOINT LFoot
      {
        OFFSET 0.0 -0.28038 0.0
        CHANNELS 3 Xrotation Yrotation Zrotation
        JOINT LToe
        {
          OFFSET 0.0 -0.030816 0.064441
          CHANNELS 3 Xrotation Yrotation Zrotation
          End Site
          {
            OFFSET 0.0 0.0 0.043231
          }
        }
      }
    }
  }
}
MOTION
Frames: 7
Frame Time: 0.03333333333333333
0.000698 0.58343 0.006087 6.25494 18.674435 -1.663849 -0.925514 0.029924 -0.380852 -1.014319 0.189428 0.070337 -8.391716 0.966545 0.520031 -1.4664 -0.184608 0.150672 -0.044749 0.226679 0.035245 0.344056 0.926925 -12.432559 26.394676 -26.677607 -52.242241 14.46101 -26.019869 -1.921849 0.001926 -0.026552 -0.011516 0.533495 0.460651 13.925119 21.394806 34.926899 53.533768 9.883847 21.044426 3.496 0.240841 -0.053007 0.021456 -8.308629 -4.241937 0.560978 22.035666 -2.204957 1.447365 -0.071304 0.879218 0.6004 -0.251165 0.024729 -0.034547 -8.277099 6.741161 -1.018422 20.08708 5.516827 -3.01689 0.143998 -1.199692 -0.756793 -0.166171 0.061 0.034572 
0.004298 0.586572 0.011658 8.076671 23.252008 -2.299073 -1.133721 -0.185812 -0.197753 -1.34918 0.246208 0.474064 -9.620584 -0.076728 -0.056506 -1.394624 -0.046915 0.046041 0.006159 0.209857 0.028226 0.711477 0.983106 -13.396014 28.743561 -27.45347 -49.782284 17.42832 -24.198381 -2.966931 -0.014267 -0.026561 -0.002125 0.556666 0.499301 13.924184 27.318386 35.796505 49.667355 12.52595 22.650009 4.26803 0.210708 -0.141757 0.01994 -9.120607 -4.759033 -0.775688 23.140491 -2.212671 1.11653 0.52695 1.156905 0.663667 -0.196774 0.072259 0.002616 -7.869698 7.383499 -2.131372 16.840815 7.057559 -2.532661 0.972329 -1.371829 -0.671764 -0.084353 0.032476 0.029593 
0.013913 0.578585 0.030527 7.637024 19.131115 -3.174103 -0.97288 -0.455545 -0.121309 -1.433133 0.226126 0.67752 -9.987152 -1.10396 -0.785672 -0.999818 0.10693 0.114681 0.027283 0.036697 0.016356 0.723226 0.396792 -14.579658 26.645424 -30.888042 -51.259716 17.1961 -20.737906 -3.072126 0.008663 0.032024 -0.020081 0.431866 0.359121 13.404132 28.25729 36.059608 51.134193 14.244251 25.161753 4.000181 0.084567 -0.147298 0.003714 -9.633387 -6.18921 -1.124329 23.469505 -3.141571 1.008951 0.715163 0.842351 0.25173 -0.185083 0.182737 0.081215 -6.509223 6.565306 -2.404902 14.189191 6.257759 -1.847684 0.247479 -0.998038 -0.237372 -0.040503 0.005717 0.017526 
0.027052 0.567718 0.01956 6.716613 15.165308 -4.384417 -0.928606 -0.533377 -0.006037 -1.421359 0.125596 0.703846 -9.295588 -1.902079 -1.734981 -0.723844 0.136908 0.118561 0.034731 -0.08977 0.003034 0.473869 0.03282 -15.147929 25.226795 -33.275867 -52.839973 16.422237 -18.189079 -2.921128 0.026373 0.068055 -0.042085 0.36937 0.502856 12.720334 29.238121 36.498486 50.272873 16.416498 31.325495 3.386002 -0.011137 -0.134843 -0.009554 -10.080491 -6.903859 -1.137963 24.445921 -3.806577 0.93432 1.271049 0.641245 0.081722 -0.215806 0.185576 0.122154 -4.870272 5.419538 -2.429186 11.067788 5.035614 -1.586972 -0.179696 -0.923354 -0.050441 -0.017218 -0.019191 -0.003909 
0.04437 0.564137 0.005127 5.741192 10.812812 -4.930095 -0.912985 -0.513443 0.064164 -1.370558 -0.002109 0.720275 -8.763675 -2.601269 -2.054428 -0.659339 0.153946 0.128813 0.037603 -0.144081 -0.002669 0.26542 -0.176395 -15.383018 24.331694 -34.231369 -54.212044 15.314983 -16.756311 -2.788634 0.036656 0.08447 -0.057002 0.30583 0.632717 12.331547 30.113422 36.217064 49.276165 17.193981 36.503601 3.02564 -0.038945 -0.139196 -0.015436 -10.112845 -7.30242 -0.778127 23.442829 -4.173123 0.945764 1.507477 0.637144 0.044722 -0.218242 0.182385 0.136846 -3.807874 4.228323 -2.340269 9.741497 4.083872 -1.469316 -0.453842 -0.791017 0.064792 -0.012321 -0.033824 -0.012881 
0.04406 0.56022 0.003244 4.911225 8.143604 -4.518768 -0.911535 -0.502408 0.072032 -1.284246 -0.100417 0.720043 -8.678273 -2.94597 -2.11111 -0.688564 0.143512 0.129735 0.03769 -0.145727 -0.003101 0.138673 -0.233889 -15.346537 23.890181 -34.55069 -55.398853 13.994929 -15.936123 -2.721251 0.041303 0.090969 -0.064289 0.270746 0.804498 12.202459 30.355574 36.044468 49.460125 16.775837 38.700706 3.071563 -0.025955 -0.153393 -0.016216 -10.278719 -7.438902 -0.205888 22.203533 -4.164756 0.893838 1.420316 0.70893 0.064726 -0.209974 0.185989 0.137065 -3.850344 3.601118 -2.078094 10.441669 3.68524 -1.527154 -0.631444 -0.661243 0.117348 -0.018325 -0.038411 -0.011877 
0.032436 0.556402 0.007374 4.513353 5.286424 -2.828774 -0.948271 -0.516346 0.027403 -1.250716 -0.190808 0.709993 -8.763572 -3.269037 -1.941509 -0.769423 0.118038 0.121381 0.034745 -0.118445 -0.000207 0.094581 -0.191073 -15.311123 23.367167 -34.653301 -56.097504 12.642549 -15.498854 -2.716522 0.038215 0.085942 -0.060644 0.213146 1.009786 12.239472 30.399307 35.837814 50.475338 16.577677 37.798313 3.16879 0.010035 -0.171257 -0.012875 -11.539259 -7.744997 0.368965 21.051397 -4.032604 0.833083 1.193915 0.813914 0.105631 -0.202061 0.18811 0.128769 -4.11325 3.10463 -1.871282 11.571676 3.590037 -1.743656 -0.761145 -0.604963 0.119045 -0.043617 -0.035025 -0.006064 
